<svg id="Layer_1" xmlns="http://www.w3.org/2000/svg" viewBox="0 0 550 222"><path fill="#231f20" d="M177.2 86.5l-2.2-5.6c-2.4 4.8-7.4 7.1-13.8 7.1-11.3 0-18-8-18-19.9V21.5c0-11 6.9-19.9 19.6-19.9s18.6 8.1 18.6 19.9v8.1h-9.8v-9.5c0-4.8-2.7-9-8.9-9-6.3 0-9.3 4.5-9.3 9.1v49.1c0 5 2.9 9.4 9.3 9.4 6.3 0 9.3-4.4 9.3-9.4v-16h-8.9v-8.9H182v42h-4.8zm42.3 0l-3.4-19.1h-14.8l-3.5 19.1H188l15.6-83.3h11l15.5 83.3h-10.6zm-10.6-64.1L203 58h11.5l-5.6-35.6zm65.3 64.8c-7.6 0-10.5-2.2-10.5-10v-19c0-5-2.3-8.3-7.1-8.3h-9.4v36.5h-10.5V3.1H257c10.6 0 16.6 5.3 16.6 16.8v12.6c0 7.1-2.3 11.6-8.9 13.3 6.5 1.4 9.3 7 9.3 13v17.8c0 2.3.7 3.3 2.9 3.3v7.4h-2.7zm-10.9-67.7c0-4.4-1.9-7-6.4-7h-9.8v29h8.8c4.6 0 7.4-2.9 7.4-8.1V19.5zm64.4 67v-64L325 37.6l-9.5 48.8h-10L296 37.6l-2.7-15.1v64H284V3.1h14.8l9.4 51.8 2.7 15.1 2.6-15.3L322.8 3h14.5v83.3h-9.6zm18.7 0V3.1h10.5v83.3h-10.5zm52.2 0L381.2 45l-5.5-14v55.4h-9.9V3.1h8.9l16.4 42 5.1 14.1V3.1h9.9v83.3h-7.5zm10-4.4c0-2.6 2-4.7 4.7-4.7s4.6 2.1 4.6 4.7-2 4.7-4.6 4.7c-2.8 0-4.7-2.1-4.7-4.7zm8.5 0c0-2.2-1.6-4-3.9-4-2.4 0-4 1.8-4 4 0 2.3 1.6 4 4 4 2.3 0 3.9-1.7 3.9-4zm-3 1.6v-.6c0-.4-.2-.6-.6-.6h-1v1.9h-.8v-4.6h1.9c1 0 1.4.5 1.4 1.2v.1c0 .5-.1.9-.6 1 .5.1.6.5.6 1v.5c0 .1.1.2.3.2v.6h-.2c-.8.1-1-.1-1-.7zm-.7-1.8c.4 0 .6-.2.6-.6v-.2c0-.3-.2-.5-.5-.5h-1.1V82h1zM162.6 177c-12.7 0-19.4-8.9-19.4-19.9v-46c0-10.8 6.7-19.9 19.4-19.9s18.9 8.3 18.9 19.1v11.3h-9.2V110c0-5.6-3.2-9.4-9.3-9.4-6.2 0-9.4 4-9.4 9.1v48.7c0 5.2 3.2 9.1 9.4 9.1 6.1 0 9.3-3.7 9.3-9.4v-11.7h9.2v11.4c-.1 10.9-6.3 19.2-18.9 19.2zm45.6 0c-12.7 0-19.5-8.6-19.5-20.4v-45c0-11.7 6.8-20.4 19.5-20.4s19.5 8.7 19.5 20.4v45c0 11.9-6.8 20.4-19.5 20.4zm9.2-66.4c0-5.6-3.1-9.8-9.2-9.8-6.2 0-9.2 4.2-9.2 9.8v47.2c0 5.7 3 9.8 9.2 9.8 6.1 0 9.2-4.1 9.2-9.8v-47.2zm51.3 65l-17.3-41.1-5.5-13.9v55h-9.8V92.8h8.8l16.3 41.7 5.1 14V92.8h9.8v82.7h-7.4zm48.9 0l-17.3-41.1-5.5-13.9v55H285V92.8h8.8l16.3 41.7 5.1 14V92.8h9.8v82.7h-7.4zm16.5 0V92.8h32.4v9.4h-22.1V128h16v9.1h-16v29.1h22.1v9.4h-32.4zm58.3 1.4c-12.7 0-19.4-8.9-19.4-19.9v-46c0-10.8 6.7-19.9 19.4-19.9s18.9 8.3 18.9 19.1v11.3H402V110c0-5.6-3.2-9.4-9.3-9.4-6.2 0-9.4 4-9.4 9.1v48.7c0 5.2 3.2 9.1 9.4 9.1 6.1 0 9.3-3.7 9.3-9.4v-11.7h9.2v11.4c0 10.9-6.2 19.2-18.8 19.2zm48.4-74.6v73.2h-10.3v-73.2h-14v-9.6h38.1v9.6h-13.8zm35.7 73.2V92.8h10.4v82.7h-10.4zm56 1.4c-2.7 0-5.3-1.1-7.1-2.6-3.1 1.7-6.7 2.6-10.7 2.6-12.7 0-19.5-8.8-19.5-19.8V111c0-10.9 6.8-19.8 19.5-19.8 12.5 0 19.4 8.8 19.4 19.8v47.3c0 3.5-.9 6.7-2.4 9.2 1.4 1.2 3.4 1.9 6.5 1.9v6.1c-1.3 1.1-2.7 1.5-5.7 1.5zm-8.7-67.2c0-4.6-3-9.1-9.1-9.1-6.2 0-9.2 4.5-9.2 9.1v48.7c0 4.7 3 9.1 9.2 9.1 2 0 3.9-.5 5.2-1.4l-3.1-2.9 7-5.8v-47.7zM152.5 220.3h-8.9V183h8.9c5.9 0 8.4 3.6 8.4 9.1v19c0 5.6-2.5 9.2-8.4 9.2zm3.8-28.1c0-3.1-1.2-4.8-4-4.8h-4V216h4c2.8 0 4-1.6 4-4.7v-19.1zm8.1 28.1V183H179v4.3h-10v11.6h7.2v4.1H169v13.1h10v4.3h-14.6zm28.5 0h-4.6l-7.2-37.3h4.9l4.7 28.7 4.9-28.7h4.6l-7.3 37.3zm10 0V183h14.6v4.3h-10v11.6h7.2v4.1h-7.2v13.1h10v4.3h-14.6zm17.7 0V183h4.6v33h9.7v4.3h-14.3zm25.5.7c-5.7 0-8.8-3.9-8.8-9.2v-20.3c0-5.3 3.1-9.2 8.8-9.2 5.7 0 8.8 3.9 8.8 9.2v20.3c0 5.3-3.1 9.2-8.8 9.2zm4.1-29.9c0-2.5-1.4-4.4-4.1-4.4-2.8 0-4.1 1.9-4.1 4.4v21.3c0 2.6 1.3 4.4 4.1 4.4 2.7 0 4.1-1.8 4.1-4.4v-21.3zm17.2 13.8H263v15.4h-4.6V183h9.1c4.8 0 7.5 2.5 7.5 7.7v6.6c-.1 5.1-2.8 7.6-7.6 7.6zm2.8-14.4c0-2.1-.8-3.2-2.7-3.2H263V201h4.5c2 0 2.7-1.2 2.7-3.3v-7.2zm7.7 29.8V183h14.6v4.3h-10v11.6h7.2v4.1h-7.2v13.1h10v4.3h-14.6zm34.5.4c-3.4 0-4.7-1-4.7-4.5v-8.5c0-2.2-1-3.7-3.2-3.7h-4.2v16.3h-4.7V183h9.1c4.8 0 7.4 2.4 7.4 7.5v5.7c0 3.2-1 5.2-4 5.9 2.9.6 4.1 3.1 4.1 5.8v7.9c0 1 .3 1.5 1.3 1.5v3.3h-1.1zm-4.8-30.3c0-2-.8-3.1-2.9-3.1h-4.4v13h3.9c2.1 0 3.3-1.3 3.3-3.6v-6.3zm23.1 30.6c-5.3 0-8.7-3.5-8.7-8.3v-3.4h4.6v2.9c0 3.1 1.5 4.9 4.1 4.9 2.7 0 4.1-1.7 4.1-4.3 0-3.5-1.4-6-5.2-9.4-3.4-3-7.2-7.3-7.2-12.2 0-5 2.9-8.8 8.4-8.8 5 0 8.3 3.5 8.3 8.4v3.5h-4.4v-3c0-2.9-1.2-4.8-4-4.8-2.5 0-3.7 1.5-3.7 3.8 0 3.6 1.5 5.8 5.8 9.7 4.3 3.9 6.5 7.4 6.5 11.9 0 6.1-4 9.1-8.6 9.1zm20.4 0c-5 0-8.7-3.2-8.7-8.6V183h4.6v29.5c0 2.8 1.3 4.3 4.1 4.3s4.1-1.5 4.1-4.3V183h4.6v29.4c0 5.4-3.6 8.6-8.7 8.6zm32-.7v-28.6l-1.2 6.8-4.3 21.8h-4.5l-4.2-21.8-1.2-6.8v28.6h-4.1V183h6.6l4.2 23.2 1.2 6.8 1.2-6.8 4.1-23.1h6.5v37.3h-4.3zm27.7 0v-28.6l-1.2 6.8-4.3 21.8h-4.5l-4.2-21.8-1.2-6.8v28.6h-4.1V183h6.6l4.2 23.2 1.2 6.8 1.2-6.8 4.1-23.1h6.5v37.3h-4.3zm8 0V183h4.7v37.3h-4.7zm18.4-32.9v33h-4.6v-33h-6.3V183h17.2v4.3h-6.3zm104.9-16.2v3.9h-.9v-3.9h-1.3v-.8h3.6v.8h-1.4zm6 3.9v-3.8l-.3 1.3-.8 2.5h-.8l-.8-2.5-.3-1.3v3.8h-.8v-4.7h1.3l.8 2.6.3 1.2.3-1.2.7-2.6h1.3v4.7h-.9z"/><path fill="#939598" d="M59.1 143.4l26.3-18.1 23.8 16.8c4.2 1.7 6.9 5.9 6.9 10.1v18.4c0 4.5-2.8 6.9-8.3 6.9l-48.7-34.1zM33.9 88.9L58.2 72 31.7 53.2 7.6 69.8C3.4 71.5 1 75.7 1 79.8v17.4c0 4.2 2.4 8.3 6.6 10.1l25.1 17.6L59 106.6 33.9 88.9zm82.2-62.6V7.9c0-4.5-2.8-6.9-8.3-6.9L58 35.2l26.4 18.5 24.8-17.3c4.2-1.7 6.9-5.9 6.9-10.1z"/><path fill="#0071ce" d="M59 106.6l26.5 18.7-26.3 18.1-26.4-18.5L59 106.6zM31.7 53.2L58.2 72l26.3-18.3L58 35.2l-26.3 18z"/><path fill="#009bde" d="M58 35.2l-26.3 18L7.9 36.4C3.8 34.7 1 30.5 1 26.3V7.9C1 3.4 3.8 1 9.3 1L58 35.2zM7.9 142.1C3.8 143.9 1 148 1 152.2v18.4c0 4.5 2.8 6.9 8.3 6.9l49.8-34.2-26.4-18.5-24.8 17.3zm75.3-52.4L59 106.6l26.5 18.7 24.1-16.5c4.2-1.7 6.6-5.9 6.6-10.1V81.4c0-4.2-2.4-8.3-6.6-10.1L84.4 53.7 58.2 72l25 17.7z"/></svg>